<svg xmlns="http://www.w3.org/2000/svg" xmlns:xlink="http://www.w3.org/1999/xlink" width="375" height="375" viewBox="0 0 375 375">
  <defs>
    <clipPath id="clip-no_internet">
      <rect width="375" height="375"/>
    </clipPath>
  </defs>
  <g id="no_internet" clip-path="url(#clip-no_internet)">
    <g id="Group_20" data-name="Group 20" transform="translate(-3963.812 1336.551)">
      <g id="Group_19" data-name="Group 19" transform="translate(3972.189 -1307.174)">
        <path id="Path_49" data-name="Path 49" d="M4329.138-845.527c.014,21.266,0,42.532.08,63.8.008,2.064-.618,2.71-2.683,2.684-7.776-.1-15.555-.03-23.333-.024a10,10,0,0,1-2.924.356q-19.395-.03-38.789,0a10,10,0,0,1-2.924-.356H4052.526a10,10,0,0,1-2.925.356q-19.395-.03-38.789,0a10,10,0,0,1-2.925-.356c-7.778-.006-15.557-.073-23.333.024-2.065.026-2.691-.621-2.683-2.684.077-21.266.066-42.532.079-63.8,1.078-.924,2.4-.81,3.67-.812,21.626-.016,43.253.014,64.878-.04,2.952-.008,4.6,1.056,5.821,3.864q12.22,28.16,42.877,31.233c4.145.414,8.271.482,12.414.484,32.588.008,65.175.061,97.762-.033,9.07-.026,17.882-1.6,26.031-5.911a48.754,48.754,0,0,0,23.243-25.471c1.6-3.961,1.776-4.127,6.09-4.13q30.218-.023,60.435,0C4326.536-846.338,4327.964-846.516,4329.138-845.527Z" transform="translate(-3976.126 1107.997)" fill="#13123f"/>
        <path id="Path_50" data-name="Path 50" d="M4115.217-928.4H4197.7a6.149,6.149,0,0,1,3.337-.927c5.954-.018,11.908-.046,17.862.02a3.813,3.813,0,0,1,2.992.907q38.811.01,77.625.008c14.958-.021,26.552,9.574,29.405,23.233.73,3.5.182,7.082.244,10.627a4.452,4.452,0,0,1-3.057.882c-.986.04-1.974.026-2.96.026q-167.578,0-335.155-.021c-2.025,0-4.175.5-6.017-.886-.269-7.507.611-14.737,5.121-21.08,4.968-6.986,11.5-11.246,20.193-12.284a82.308,82.308,0,0,1,9.7-.468q36.72-.053,73.441-.036c1.009-1.017,2.326-.912,3.578-.921,5.76-.043,11.521-.017,17.282-.019A6.844,6.844,0,0,1,4115.217-928.4Z" transform="translate(-3976.151 1141.738)" fill="#13123f"/>
        <path id="Path_51" data-name="Path 51" d="M3982-870.722c.888-.024,1.775-.068,2.663-.068q170.93,0,341.862,0c.888,0,1.775.044,2.663.068q0,7.634,0,15.267c-21.914.023-43.828.082-65.742.014-2.108-.007-2.883.665-3.6,2.593-5.153,13.817-14.773,23.28-28.359,28.937-7.321,3.049-14.963,4.032-22.745,4.05q-50.789.117-101.58.028c-10.424,0-20.388-1.759-29.639-7.023a48.727,48.727,0,0,1-22.071-25.683c-.814-2.127-1.75-2.924-4.154-2.914-23.1.093-46.2.023-69.3,0Z" transform="translate(-3976.181 1117.924)" fill="#f37b46"/>
        <path id="Path_52" data-name="Path 52" d="M4195.8-1287.253c23.52-.564,44.766,4.2,65.17,12.746a154.879,154.879,0,0,1,38.233,23.263,150.2,150.2,0,0,1,12.4,11.264c3.76,3.843,3.742,8.916-.074,12.721-3.795,3.783-8.844,3.74-12.723-.021-12.411-12.036-26.265-22.042-42.047-29.184a144.24,144.24,0,0,0-38.637-11.355,134.467,134.467,0,0,0-28.108-1.606c-18.748,1.186-36.8,5.315-53.91,13.438a153.124,153.124,0,0,0-32.948,21.281c-2.8,2.352-5.271,5-7.943,7.453-5.112,4.7-12.39,3.322-15.028-2.839a9.638,9.638,0,0,1,2.1-10.292,165.91,165.91,0,0,1,32.849-25.2,157.376,157.376,0,0,1,45.333-17.887,164.686,164.686,0,0,1,21.879-3.368C4187.267-1287.254,4192.158-1286.995,4195.8-1287.253Z" transform="translate(-4015.826 1287.298)" fill="#6a05fe"/>
        <path id="Path_53" data-name="Path 53" d="M4213.976-1223.524a121.645,121.645,0,0,1,62.662,15.962,107.848,107.848,0,0,1,21.457,15.556c1.491,1.409,3.166,2.627,4.618,4.071,3.811,3.79,4.063,9.543.659,13.006-4.021,4.09-9.373,4.313-13.479.15a104.348,104.348,0,0,0-25.846-18.949,97.15,97.15,0,0,0-26.765-9.575c-8.154-1.584-16.4-2.732-24.727-2.376a110.647,110.647,0,0,0-38.241,8.273,111.658,111.658,0,0,0-34.534,23.084,9.049,9.049,0,0,1-12.662-.2,8.946,8.946,0,0,1-.156-12.432c12.871-13.371,28.225-22.913,45.557-29.36a122.054,122.054,0,0,1,26.492-6.461C4204.436-1223.495,4209.961-1223.936,4213.976-1223.524Z" transform="translate(-4034.138 1261.428)" fill="#6a05fe"/>
        <path id="Path_54" data-name="Path 54" d="M4231.545-1162.493c20.259.108,37.65,5.794,53.255,16.845a85.672,85.672,0,0,1,9.327,8.03c4.279,4.072,4.673,9.646,1.16,13.208-4.1,4.161-9.857,4.146-14.215-.285-7.845-7.976-17.309-13.208-27.843-16.569a70.8,70.8,0,0,0-16.6-2.919c-13.529-.965-26.022,2.284-37.8,8.563a54.75,54.75,0,0,0-15.091,11.437c-3.039,3.37-9.935,3.411-12.879.736-4.264-3.874-4.234-9.977.283-14.164a98.259,98.259,0,0,1,14.729-11.455,85.386,85.386,0,0,1,33.357-12.245A77.931,77.931,0,0,1,4231.545-1162.493Z" transform="translate(-4051.695 1236.55)" fill="#6a05fe"/>
        <path id="Path_55" data-name="Path 55" d="M4134.715-991.1h-24.784c-.721-.8-1.411-1.622-2.168-2.38q-37.967-37.984-75.94-75.962c-.687-.686-1.3-1.448-1.945-2.174,4.1-4.044,7.66-8.652,12.505-11.91.519.437,1.073.838,1.551,1.315q44.666,44.661,89.314,89.34C4133.789-992.329,4134.229-991.69,4134.715-991.1Z" transform="translate(-3995.649 1204.433)" fill="#13123f"/>
        <path id="Path_56" data-name="Path 56" d="M4369.767-991.1h-24.191a16.845,16.845,0,0,1,1.246-1.574q44.865-44.881,89.75-89.741c.408-.408.889-.743,1.335-1.113,3.669,2.047,6,5.553,9.018,8.312,1.126,1.03,2.527,1.925,2.9,3.6-.647.726-1.26,1.487-1.947,2.174q-37.964,37.984-75.937,75.96C4371.177-992.72,4370.487-991.893,4369.767-991.1Z" transform="translate(-4124.028 1204.433)" fill="#13123f"/>
        <path id="Path_57" data-name="Path 57" d="M4247.645-1103.643c16.438-.091,28.893,4.979,39.371,14.992,5.729,5.474,2.937,13.947-4.2,15.7-3.792.93-6.873-.866-9.5-3.365a33.393,33.393,0,0,0-25.877-9.364,33.274,33.274,0,0,0-21.9,9.7c-5.262,5.183-12.615,4.079-15.425-2.281a10.256,10.256,0,0,1,2.417-10.749C4221.982-1097.564,4234.792-1104.134,4247.645-1103.643Z" transform="translate(-4068.683 1212.624)" fill="#6a05fe"/>
        <path id="Path_58" data-name="Path 58" d="M4283.856-1028.976c.806,11.6-9.83,22.125-22.332,21.746-11.116-.336-21.02-10.321-20.954-21.626a21.885,21.885,0,0,1,22.779-21.85C4274.017-1050.435,4284.586-1040.958,4283.856-1028.976Z" transform="translate(-4081.327 1191.09)" fill="#6a05fe"/>
        <path id="Path_59" data-name="Path 59" d="M4025.718-733.383c.491-.928,1.377-.592,2.1-.593q20.216-.031,40.432,0c.727,0,1.612-.335,2.1.593-.032,2.664-.077,5.328-.094,7.992a8.366,8.366,0,0,1-8.614,8.582c-8.691.01-17.386-.156-26.07.064-5.032.127-9.513-3.537-9.752-9.534C4025.731-728.646,4025.75-731.015,4025.718-733.383Z" transform="translate(-3993.957 1062.311)" fill="#f37b46"/>
        <path id="Path_60" data-name="Path 60" d="M4448.2-733.383c.491-.928,1.377-.592,2.1-.593q20.216-.031,40.432,0c.727,0,1.612-.335,2.1.593-.033,2.757-.081,5.513-.093,8.27a8.384,8.384,0,0,1-8.257,8.3c-8.572.024-17.159-.287-25.712.113-5.413.253-10.317-3.466-10.475-10.187C4448.246-729.052,4448.229-731.218,4448.2-733.383Z" transform="translate(-4165.759 1062.311)" fill="#f37b46"/>
        <path id="Path_61" data-name="Path 61" d="M3982.649-1118.933c-3.229-3.15-6.439-6.32-9.7-9.436-.863-.825-1.109-1.4-.109-2.364,3.394-3.282,6.715-6.641,10.03-10,.995-1.01,1.806-.879,2.73.077,3,3.106,6.035,6.182,9.056,9.269a1.822,1.822,0,0,1-.685,1.836c-3.371,3.442-6.719,6.907-10.249,10.189A1.707,1.707,0,0,1,3982.649-1118.933Z" transform="translate(-3972.189 1227.983)" fill="#13123f"/>
        <path id="Path_62" data-name="Path 62" d="M4542.088-1131.313c3.031-3.095,6.083-6.169,9.081-9.3.791-.825,1.329-.863,2.151-.021q4.965,5.079,10.045,10.045c.842.822.8,1.361-.021,2.151-3.127,3-6.2,6.049-9.3,9.081A33.929,33.929,0,0,1,4542.088-1131.313Z" transform="translate(-4203.941 1227.905)" fill="#13123f"/>
        <path id="Path_63" data-name="Path 63" d="M3989.818-1112.047l12.006-12.458a92.447,92.447,0,0,1,8.262,8.316,1.575,1.575,0,0,1-.386,2.107c-3.293,3.457-6.61,6.892-10.157,10.093a1.358,1.358,0,0,1-1.362.3A85.037,85.037,0,0,1,3989.818-1112.047Z" transform="translate(-3979.358 1221.098)" fill="#f37b46"/>
        <path id="Path_64" data-name="Path 64" d="M4536.045-1124.505q5.7,6.254,11.959,11.959l-8.815,8.817c-2.11-.655-3.269-2.487-4.657-3.958-2.478-2.626-5.59-4.684-7.305-8Z" transform="translate(-4197.897 1221.098)" fill="#f37b46"/>
        <path id="Path_65" data-name="Path 65" d="M4037.018-1089.045q-5.477,5.59-10.949,11.186a2.208,2.208,0,0,1-1.556.724,74.283,74.283,0,0,1-7.767-7.768c-.02-.1-.09-.224-.052-.282,3.032-4.7,7.208-8.289,11.46-11.8.31-.256.749-.024,1.093.179A74.144,74.144,0,0,1,4037.018-1089.045Z" transform="translate(-3990.283 1209.953)" fill="#f37b46"/>
        <path id="Path_66" data-name="Path 66" d="M4513.1-1077.107q-6.242-5.669-11.912-11.913a73.945,73.945,0,0,1,7.771-7.763c1.134-.665,1.882.112,2.574.778q4.359,4.193,8.552,8.552c.666.692,1.443,1.439.778,2.574A74.085,74.085,0,0,1,4513.1-1077.107Z" transform="translate(-4187.308 1209.927)" fill="#f37b46"/>
        <path id="Path_67" data-name="Path 67" d="M4024.055-1102.253c-1.958.32-2.8,2.063-4.037,3.26-2.892,2.808-5.651,5.754-8.464,8.645a70.135,70.135,0,0,1-7.64-7.64c3.793-3.721,7.6-7.434,11.362-11.184a3.854,3.854,0,0,0,.542-1.317A81.378,81.378,0,0,1,4024.055-1102.253Z" transform="translate(-3985.09 1215.398)" fill="#13123f"/>
        <path id="Path_68" data-name="Path 68" d="M4526.188-1090.007c-1.791-3.634-5.247-5.762-7.879-8.632-1.151-1.255-2.066-2.953-4.025-3.272a80.528,80.528,0,0,1,7.68-7.738q6.263,5.7,11.962,11.962A80.627,80.627,0,0,1,4526.188-1090.007Z" transform="translate(-4192.634 1215.056)" fill="#13123f"/>
        <path id="Path_69" data-name="Path 69" d="M4167.142-838.284a7.548,7.548,0,0,1-7.358,7.79c-4.407.024-8.224-3.638-8.028-7.855.177-3.811,3.218-8.037,7.9-7.641C4164.524-845.578,4167.149-843.242,4167.142-838.284Z" transform="translate(-4045.208 1107.849)" fill="#13123f"/>
        <path id="Path_70" data-name="Path 70" d="M4328.362-845.824a7.5,7.5,0,0,1,7.561,7.561,7.641,7.641,0,0,1-7.713,7.845c-4.518-.007-7.706-3.351-7.694-8.07C4320.527-843.177,4323.37-845.835,4328.362-845.824Z" transform="translate(-4113.838 1107.771)" fill="#fff"/>
        <path id="Path_71" data-name="Path 71" d="M4272.163-845.889c4.318-.816,7.654,3.761,7.73,7.693a7.943,7.943,0,0,1-7.562,7.7c-4.046.021-8.265-3.5-7.931-7.6C4264.817-843.235,4267.072-845.885,4272.163-845.889Z" transform="translate(-4091.01 1107.836)" fill="#fff"/>
        <path id="Path_72" data-name="Path 72" d="M4384.18-845.824c4.608,0,7.678,3.089,7.674,7.715a7.584,7.584,0,0,1-7.585,7.691,7.6,7.6,0,0,1-7.823-7.75C4376.464-842.766,4379.554-845.826,4384.18-845.824Z" transform="translate(-4136.582 1107.771)" fill="#fff"/>
        <path id="Path_73" data-name="Path 73" d="M4208.654-838.565c0-4.667,2.723-7.229,7.527-7.289a7.421,7.421,0,0,1,7.806,7.4c.063,3.79-3.485,8.214-8.031,8.048C4211.755-830.561,4208.649-833.936,4208.654-838.565Z" transform="translate(-4068.349 1107.783)" fill="#fff"/>
      </g>
      <path id="Path_74" data-name="Path 74" d="M4401.068-1308.2l-126.5,168.148,95.461-187.516a18.288,18.288,0,0,1,25.2-5.829A18.285,18.285,0,0,1,4401.068-1308.2Z" transform="translate(-122.965)" fill="#13123f"/>
    </g>
  </g>
</svg>
